<?xml version="1.0" encoding="UTF-8"?>
<svg width="15px" height="19px" viewBox="0 0 15 19" version="1.1" xmlns="http://www.w3.org/2000/svg" xmlns:xlink="http://www.w3.org/1999/xlink">
    <title>BF10A16C-7413-496F-95FC-CED595DC5902@1.00x</title>
    <defs>
        <path d="M16.333,15.166 L16.3333333,17.6666667 L5.91666674,17.6666667 C5.22631228,17.6666667 4.66666666,17.1070212 4.66666666,16.4166668 L4.66666666,16.4166668 L4.67312036,16.288862 C4.73713293,15.6585432 5.26945947,15.1666671 5.91666674,15.1666671 L5.91666674,15.1666671 L16.333,15.166 Z M16.3333333,2.66666667 L16.333,13.5 L5.91666674,13.5000005 C5.46925743,13.5000005 5.04537685,13.6007401 4.66647042,13.780774 L4.66666666,3.91666687 C4.66666666,3.22631228 5.22631231,2.66666667 5.91666676,2.66666667 L5.91666676,2.66666667 L16.3333333,2.66666667 Z M17.1666667,1 C17.626904,1 18,1.37309603 18,1.83333333 L18,18.5 C18,18.9602374 17.626904,19.3333334 17.1666667,19.3333334 L5.9166667,19.3333334 C4.30583769,19.3333334 3,18.0274957 3,16.4166668 L3,3.91666675 C3,2.30583765 4.30583772,1 5.91666665,1 L17.1666667,1 Z" id="path-1"></path>
    </defs>
    <g id="Learn-Content---Print-Styles" stroke="none" stroke-width="1" fill="none" fill-rule="evenodd">
        <g id="Article-Detail---Print" transform="translate(-152.000000, -62.000000)">
            <g id="module-info" transform="translate(149.000000, 61.000000)">
                <g id="Stacked-Group">
                    <g id="plan/course">
                        <g id="Stacked-Group">
                            <g id="Icon-/-Book">
                                <mask id="mask-2" fill="white">
                                    <use xlink:href="#path-1"></use>
                                </mask>
                                <use id="Path-2" fill="#474D52" fill-rule="evenodd" xlink:href="#path-1"></use>
                            </g>
                        </g>
                    </g>
                </g>
            </g>
        </g>
    </g>
</svg>